<svg xmlns="http://www.w3.org/2000/svg" version="1.1" xmlns:xlink="http://www.w3.org/1999/xlink" xmlns:svgjs="http://svgjs.dev/svgjs" width="1000" height="1000" viewBox="0 0 1000 1000"><rect width="1000" height="1000" fill="#ffffff"></rect><g transform="matrix(0.7,0,0,0.7,149.57576111389324,415.5087875362242)"><svg viewBox="0 0 396 96" data-background-color="#ff4136" preserveAspectRatio="xMidYMid meet" height="242" width="1000" xmlns="http://www.w3.org/2000/svg" xmlns:xlink="http://www.w3.org/1999/xlink"><g id="tight-bounds" transform="matrix(1,0,0,1,0.23999799842613356,-0.11832115394051357)"><svg viewBox="0 0 395.52 96.23664230788103" height="96.23664230788103" width="395.52"><g><svg viewBox="0 0 559.3686951392817 136.10377485928703" height="96.23664230788103" width="395.52"><g><rect width="5.6045565643407125" height="136.10377485928703" x="143.5725245321643" y="0" fill="#000000" opacity="1" stroke-width="0" stroke="transparent" fill-opacity="1" class="rect-o-0" data-fill-palette-color="primary" rx="1%" id="o-0" data-palette-color="#ffffff"></rect></g><g transform="matrix(1,0,0,1,163.84869513928174,0.33856660412757833)"><svg viewBox="0 0 395.52 135.42664165103187" height="135.42664165103187" width="395.52"><g id="textblocktransform"><svg viewBox="0 0 395.52 135.42664165103187" height="135.42664165103187" width="395.52" id="textblock"><g><svg viewBox="0 0 395.52 135.42664165103187" height="135.42664165103187" width="395.52"><g transform="matrix(1,0,0,1,0,0)"><svg width="395.52" viewBox="3 -33.25 213.1999969482422 70.00000762939453" height="135.42664165103187" data-palette-color="#ffffff"><svg></svg><svg></svg><g class="wordmark-text-0" data-fill-palette-color="primary" id="text-0"><path xmlns="http://www.w3.org/2000/svg" d="M14.1 0h-11.1v-0.8l3.95-2 1.05-27.35-4.3-2.05v-0.8h9.25l11.55 26.6 11.5-26.6h8.8v0.8l-4.2 2 0.85 27.4 3.5 2v0.8h-11.5v-0.8l3.7-1.95-0.5-24.65-11.95 27.65h-2.25l-11.75-27.3-0.65 24.3 4.05 1.95zM60.4 0h-10.8v-0.8l3.2-1.65 12.8-30.8h2.25l12.6 30.65 3.35 1.8v0.8h-12.4v-0.8l4.4-1.7-3.75-9.25h-12.15l-3.7 9.25 4.2 1.7zM66-26.8l-4.95 12.3h9.9zM100.95 0h-12.25v-0.8l4-2v-27.4l-4-2v-0.8h12.9c3.5 0 6.26 0.723 8.28 2.17 2.013 1.453 3.02 3.447 3.02 5.98v0c0 1.867-0.633 3.54-1.9 5.02-1.267 1.487-2.95 2.613-5.05 3.38v0l9.5 13.85 3.3 1.8v0.8h-7.2l-9.7-15.15h-4.65v12.3l3.75 2.05zM100.45-30.25v0h-3.25v12.35h3.55c2.1 0 3.843-0.593 5.23-1.78 1.38-1.18 2.07-2.687 2.07-4.52v0c0-1.867-0.683-3.343-2.05-4.43-1.367-1.08-3.217-1.62-5.55-1.62zM138.05 0.25h-1.75l-12.6-30.7-3.45-1.75v-0.8h12.5v0.8l-4.3 1.85v0.25l9.35 22.9h0.25l9.3-23.1v-0.2l-4.1-1.7v-0.8h10.5v0.8l-2.85 1.5zM184.6 0h-25.85v-0.8l4-2v-27.4l-4-2v-0.8h24.45v8.6h-0.8l-3.1-5.85h-12.05v11.85h8.5l2.5-4.15h0.8v10.95h-0.8l-2.5-4.05h-8.5v12.9h13.45l3.1-6.35h0.8zM216.2 0h-24.85v-0.8l4-2v-27.4l-4-2v-0.8h13v0.8l-4.5 2v27.45h12.15l3.4-8.35h0.8z" fill="#000000" fill-rule="nonzero" stroke="none" stroke-width="1" stroke-linecap="butt" stroke-linejoin="miter" stroke-miterlimit="10" stroke-dasharray="" stroke-dashoffset="0" font-family="none" font-weight="none" font-size="none" text-anchor="none" style="mix-blend-mode: normal" data-fill-palette-color="primary" opacity="1"></path><path xmlns="http://www.w3.org/2000/svg" d="M14.1 36.5h-11.1v-0.8l3.95-2 1.05-27.35-4.3-2.05v-0.8h9.25l11.55 26.6 11.5-26.6h8.8v0.8l-4.2 2 0.85 27.4 3.5 2v0.8h-11.5v-0.8l3.7-1.95-0.5-24.65-11.95 27.65h-2.25l-11.75-27.3-0.65 24.3 4.05 1.95zM60.4 36.5h-10.8v-0.8l3.2-1.65 12.8-30.8h2.25l12.6 30.65 3.35 1.8v0.8h-12.4v-0.8l4.4-1.7-3.75-9.25h-12.15l-3.7 9.25 4.2 1.7zM66 9.7l-4.95 12.3h9.9zM100.95 36.5h-12.5v-0.8l4-2v-27.3l-3.95-2.1v-0.8h7.35l19.1 24v-21.3l-5-1.9v-0.8h12.45v0.8l-3.95 1.95v30.5h-1.85l-20.65-26.05v23.05l5 1.95zM141.4 36.5h-12.5v-0.8l4-2v-27.4l-4-2v-0.8h12.5v0.8l-4 2v27.4l4 2zM157.35 36.5h-10.8v-0.8l3.2-1.65 12.8-30.8h2.25l12.6 30.65 3.35 1.8v0.8h-12.4v-0.8l4.4-1.7-3.75-9.25h-12.15l-3.7 9.25 4.2 1.7zM162.95 9.7l-4.95 12.3h9.9z" fill="#000000" fill-rule="nonzero" stroke="none" stroke-width="1" stroke-linecap="butt" stroke-linejoin="miter" stroke-miterlimit="10" stroke-dasharray="" stroke-dashoffset="0" font-family="none" font-weight="none" font-size="none" text-anchor="none" style="mix-blend-mode: normal" data-fill-palette-color="primary" opacity="1"></path></g></svg></g></svg></g></svg></g></svg></g><g transform="matrix(1,0,0,1,0,0.33856660412757833)"><svg viewBox="0 0 128.90091048938757 135.42664165103187" height="135.42664165103187" width="128.90091048938757"><g><svg xmlns="http://www.w3.org/2000/svg" xmlns:xlink="http://www.w3.org/1999/xlink" version="1.1" x="0" y="0" viewBox="4.074999809265137 0 91.85000610351562 96.5" style="enable-background:new 0 0 100 100;" xml:space="preserve" height="135.42664165103187" width="128.90091048938757" class="icon-icon-0" data-fill-palette-color="accent" id="icon-0"><path d="M68.254 36.923C52.381 47.88 56.634 67.22 56.634 67.22S50.146 78.772 50 79.053c-0.146-0.28-6.634-11.833-6.634-11.833s4.253-19.34-11.62-30.296C9.525 21.585 4.075 0 4.075 0s0.281 37.646 0.421 46.354c0.141 8.708 3.359 15.981 7.164 19.525 3.083 2.87 12.22 8.147 12.22 8.147L34.275 96.5l-2.81-20.086 18.529 3.648c0 0.001-0.001 0.003-0.001 0.003L50 80.064l0.007 0.001c0 0-0.001-0.002-0.001-0.003l18.529-3.648L65.725 96.5 76.12 74.027c0 0 9.137-5.277 12.22-8.147 3.805-3.544 7.023-10.817 7.164-19.525C95.644 37.646 95.925 0 95.925 0S90.475 21.585 68.254 36.923z" fill="#000000" data-fill-palette-color="accent"></path><g fill="#454545" data-fill-palette-color="accent"><path d="M60.854 66.974c0 0 7.191-7 11.187-8.251 3.997-1.251 1.596 5.004-1.347 5.933C67.752 65.585 60.854 66.974 60.854 66.974z" fill="#000000" data-fill-palette-color="accent"></path><path d="M39.146 66.974c0 0-7.191-7-11.187-8.251-3.997-1.251-1.596 5.004 1.347 5.933C32.248 65.585 39.146 66.974 39.146 66.974z" fill="#000000" data-fill-palette-color="accent"></path></g><polygon points="57.562,85.625 42.438,85.625 39.25,89.25 42.438,87.75 57.562,87.75 60.75,89.25 " fill="#000000" data-fill-palette-color="accent"></polygon></svg></g></svg></g></svg></g><defs></defs></svg><rect width="395.52" height="96.23664230788103" fill="none" stroke="none" visibility="hidden"></rect></g></svg></g></svg>